<?xml version="1.0" standalone="no"?>
<!DOCTYPE svg PUBLIC "-//W3C//DTD SVG 1.1//EN" "http://www.w3.org/Graphics/SVG/1.1/DTD/svg11.dtd" >
<svg xmlns="http://www.w3.org/2000/svg" xmlns:xlink="http://www.w3.org/1999/xlink" version="1.1">
<metadata>
Created by FontForge 20180930 at Mon Oct  8 19:21:54 2018
 By root
</metadata>
<defs>
<font id="DECTerminalModern" horiz-adv-x="852" >
  <font-face 
    font-family="DEC Terminal Modern"
    font-weight="400"
    font-stretch="normal"
    units-per-em="2048"
    panose-1="2 11 6 9 5 3 2 2 2 4"
    ascent="1638"
    descent="-410"
    x-height="1433"
    cap-height="1843"
    bbox="0 -40 852 2051.98"
    underline-thickness="0"
    underline-position="0"
    unicode-range="U+0020-E005"
  />
    <missing-glyph />
    <glyph glyph-name="space" unicode=" " 
 />
    <glyph glyph-name="exclam" unicode="!" 
d="M284 1841h142v-1023h-142v1023zM284 613h142v-205h-142v205z" />
    <glyph glyph-name="quotedbl" unicode="&#x22;" 
d="M379 1841h142v-614h-142v614zM95 1841h142v-614h-142v614z" />
    <glyph glyph-name="numbersign" unicode="#" 
d="M379 1841h142v-409h95v-205h-95v-205h95v-204h-95v-410h-142v410h-142v-410h-142v410h-95v204h95v205h-95v205h95v409h142v-409h142v409zM379 1022v205h-142v-205h142z" />
    <glyph glyph-name="dollar" unicode="$" 
d="M521 612h-95v-204h-142v204h-189v205h189v205h-95q-78 0 -133.5 89.5t-55.5 217.5q0 127 55.5 217t133.5 90h95v205h142v-205h190v-205h-190v-205h95q78 0 133.5 -90t55.5 -216q0 -128 -55.5 -218t-133.5 -90zM521 817q47 0 47 103q0 102 -47 102h-95v-205h95zM189 1226
h95v205h-95q-47 0 -47 -102q0 -103 47 -103z" />
    <glyph glyph-name="percent" unicode="%" 
d="M0 408v102l616 1331h94v-102l-615 -1331h-95zM546 1022q68 0 116.5 -90.5t48.5 -216.5q0 -128 -48.5 -217.5t-116.5 -89.5q-69 0 -117.5 89.5t-48.5 217.5q0 126 48.5 216.5t117.5 90.5zM546 817q-42 0 -42 -102q0 -103 42 -103q41 0 41 103q0 102 -41 102zM166 1636
q-42 0 -42 -102q0 -103 42 -103q41 0 41 103q0 102 -41 102zM166 1841q68 0 116.5 -90.5t48.5 -216.5q0 -128 -48.5 -218t-116.5 -90q-69 0 -117.5 90t-48.5 218q0 126 48.5 216.5t117.5 90.5z" />
    <glyph glyph-name="ampersand" unicode="&#x26;" 
d="M237 1022q-39 0 -67 -60.5t-28 -144.5q0 -85 28 -145t67 -60h142q62 0 112 80q-58 127 -123 228.5t-131 101.5zM237 1226h47q39 0 67 60t28 145q0 84 -28 144.5t-67 60.5h-47q-39 0 -67 -60.5t-28 -144.5q0 -85 28 -145t67 -60zM423 1100q33 -50 66 -111t65 -126
q14 76 14 159h142q0 -202 -64 -365q18 -42 34 -80t30 -67v-102h-94q-18 38 -48 109q-86 -109 -189 -109h-142q-99 0 -168 119.5t-69 289.5q0 184 80 307q-80 122 -80 307q0 169 69 289.5t168 120.5h47q98 0 167.5 -120.5t69.5 -289.5q0 -209 -98 -331z" />
    <glyph glyph-name="quotesingle" unicode="'" 
d="M518 1846q0 -231 -65.5 -346t-171.5 -268h-94v82q73 106 112.5 170.5t57.5 156.5h-76v205h237z" />
    <glyph glyph-name="parenleft" unicode="(" 
d="M516 409h-142q-185 307 -185 716.5t185 717.5h142q-185 -308 -185 -717.5t185 -716.5z" />
    <glyph glyph-name="parenright" unicode=")" 
d="M189 409q185 307 185 716.5t-185 717.5h143q184 -308 184 -717.5t-184 -716.5h-143z" />
    <glyph glyph-name="asterisk" unicode="*" 
d="M616 614h-95l-166 358l-166 -358h-94v102l142 308h-237v204h237l-142 308v102h94l166 -358l166 358h95v-102l-142 -308h236v-204h-236l142 -308v-102z" />
    <glyph glyph-name="plus" unicode="+" 
d="M284 1638h142v-409h284v-205h-284v-409h-142v409h-284v205h284v409z" />
    <glyph glyph-name="comma" unicode="," 
d="M426 819q0 -231 -65 -346t-172 -268h-94v81q74 107 113.5 171.5t57.5 156.5h-77v205h237z" />
    <glyph glyph-name="hyphen" unicode="-" 
d="M0 1024v205h710v-205h-710z" />
    <glyph glyph-name="period" unicode="." 
d="M189 410v409h237v-409h-237z" />
    <glyph glyph-name="slash" unicode="/" 
d="M0 409v103l616 1331h94v-103l-615 -1331h-95z" />
    <glyph glyph-name="zero" unicode="0" 
d="M379 614q78 0 133.5 149.5t55.5 362.5q0 212 -55.5 362t-133.5 150h-47q-79 0 -134.5 -150t-55.5 -362q0 -213 55.5 -362.5t134.5 -149.5h47zM379 409h-47q-138 0 -235 210t-97 507t97 507t235 210h47q137 0 234 -210t97 -507t-97 -507t-234 -210z" />
    <glyph glyph-name="one" unicode="1" 
d="M284 614v819l-95 -205h-94v103l236 512h95v-1229h190v-205h-521v205h189z" />
    <glyph glyph-name="two" unicode="2" 
d="M710 614v-205h-710v205q0 208 148 411t326 203q39 0 66.5 60t27.5 145q0 84 -27.5 144.5t-66.5 60.5h-237q-40 0 -67.5 -60.5t-27.5 -144.5h-142q0 169 69 289.5t168 120.5h237q97 0 166.5 -120.5t69.5 -289.5q0 -170 -71 -289.5t-165 -119.5q-143 0 -237.5 -128.5
t-94.5 -281.5h568z" />
    <glyph glyph-name="three" unicode="3" 
d="M474 1228q97 0 166.5 -120t69.5 -289q0 -170 -71 -290t-165 -120h-237q-95 0 -166 120t-71 290h142q0 -85 28 -145t67 -60h237q39 0 66.5 60t27.5 145q0 84 -27.5 144.5t-66.5 60.5h-95.5h-94.5v102l237 512h-521v205h710v-103z" />
    <glyph glyph-name="four" unicode="4" 
d="M189 1024h190v409zM0 921l426 922h95v-103v-716h189v-205h-189v-410h-142v410h-284h-95v102z" />
    <glyph glyph-name="five" unicode="5" 
d="M236 409q-98 0 -167 120t-69 290h142q0 -85 27.5 -145t66.5 -60h238q39 0 66.5 60t27.5 145v205q0 84 -27.5 144t-66.5 60h-180q-62 0 -105.5 -55.5t-46.5 -148.5h-142v819h710v-205h-568v-284v0q71 79 152 79h180q97 0 166.5 -120t69.5 -289v-205q0 -170 -69.5 -290
t-166.5 -120h-238z" />
    <glyph glyph-name="six" unicode="6" 
d="M142 1149q69 79 151 79h181q97 0 166.5 -120t69.5 -289q0 -170 -69.5 -290t-166.5 -120h-239q-99 0 -167 120t-68 290v307q0 297 96.5 507t234.5 210h285v-205h-285q-76 0 -131 -142.5t-58 -346.5zM156 708q28 -94 79 -94h239q39 0 66.5 60t27.5 145q0 84 -27.5 144.5
t-66.5 60.5h-181q-78 0 -123.5 -86t-13.5 -230z" />
    <glyph glyph-name="seven" unicode="7" 
d="M332 512v-103h-143v103q0 153 59 305t130 296t130.5 276.5t59.5 248.5h-568v205h710v-205q0 -116 -59.5 -248.5t-130 -276.5t-129.5 -296t-59 -305z" />
    <glyph glyph-name="eight" unicode="8" 
d="M475 409h-238q-99 0 -168 119.5t-69 289.5q0 184 80 307q-80 122 -80 308q0 169 69 289t168 120h238q98 0 167.5 -120t69.5 -289q0 -186 -80 -308q80 -123 80 -307q0 -170 -69.5 -289.5t-167.5 -119.5zM475 1228q39 0 67 59.5t28 145.5q0 84 -28 144t-67 60h-238
q-39 0 -67 -60t-28 -144q0 -86 28 -145.5t67 -59.5h238zM475 614q39 0 67 59.5t28 144.5q0 84 -28 144.5t-67 60.5h-238q-39 0 -67 -60.5t-28 -144.5q0 -85 28 -144.5t67 -59.5h238z" />
    <glyph glyph-name="nine" unicode="9" 
d="M568 1102q-71 -78 -151 -78h-180q-99 0 -168 119.5t-69 289.5q0 169 69 289.5t168 120.5h238q98 0 166.5 -120.5t68.5 -289.5v-307q0 -297 -97 -507t-234 -210h-284v205h284q76 0 130.5 142t58.5 346zM554 1544q-29 94 -79 94h-238q-39 0 -67 -60.5t-28 -144.5
q0 -85 28 -145t67 -60h180q78 0 123.5 85.5t13.5 230.5z" />
    <glyph glyph-name="colon" unicode=":" 
d="M189 1638h237v-409h-237v409zM189 819h237v-409h-237v409z" />
    <glyph glyph-name="semicolon" unicode=";" 
d="M426 819q0 -231 -65 -346t-172 -268h-94v81q74 107 113 171.5t57 156.5h-76v205h237zM189 1638h237v-410h-237v410z" />
    <glyph glyph-name="less" unicode="&#x3c;" 
d="M191 1126l519 -614v-103h-104l-606 717l606 717h104v-103z" />
    <glyph glyph-name="equal" unicode="=" 
d="M0 1433h710v-204h-710v204zM0 1024h710v-205h-710v205z" />
    <glyph glyph-name="greater" unicode="&#x3e;" 
d="M520 1126l-520 614v103h104l606 -717l-606 -717h-104v103z" />
    <glyph glyph-name="question" unicode="?" 
d="M284 614h142v-205h-142v205zM284 819v205q0 153 65 281t172 128q47 0 47 103q0 102 -47 102h-284q-39 0 -67 -60.5t-28 -144.5h-142q0 169 69 289.5t168 120.5h284q78 0 133.5 -90.5t55.5 -216.5q0 -128 -55.5 -218t-133.5 -90q-50 0 -72.5 -64t-22.5 -140v-205h-142z
" />
    <glyph glyph-name="at" unicode="@" 
d="M567 1229h-188q-48 0 -48 -103q0 -102 48 -102h38q60 0 103.5 55t46.5 150zM568 819v82l-1 -4q-71 -78 -150 -78h-38q-79 0 -134.5 89.5t-55.5 217.5q0 127 55.5 217t134.5 90h184q-10 90 -34.5 147.5t-54.5 57.5h-237q-40 0 -67.5 -90t-27.5 -217v-410q0 -127 27.5 -217
t67.5 -90h379v-205h-379q-99 0 -168 149.5t-69 362.5v410q0 212 69 362t168 150h241q94 0 163 -150t69 -362v-512h-142z" />
    <glyph glyph-name="A" unicode="A" 
d="M355 1617q-96 -172 -142 -295.5t-61 -297.5h406q-15 174 -61 297.5t-142 295.5zM142 819v-410h-142v410q0 192 18.5 318t58.5 231.5t103 213t152 261.5h47q88 -154 151 -261.5t102.5 -213t58.5 -231.5t19 -318v-410h-142v410h-426z" />
    <glyph glyph-name="B" unicode="B" 
d="M469 409h-469v205h95v1024h-95v205h474q97 0 166.5 -120.5t69.5 -289.5q0 -185 -80 -307q80 -123 80 -307q0 -170 -70 -290t-171 -120zM474 1024h9h-246v-410h237q39 0 66.5 60t27.5 145q0 84 -27.5 144.5t-66.5 60.5zM237 1638v-409h237q39 0 66.5 59.5t27.5 144.5
q0 84 -27.5 144.5t-66.5 60.5h-237z" />
    <glyph glyph-name="C" unicode="C" 
d="M331 1638q-78 0 -133.5 -150t-55.5 -362q0 -213 55.5 -362.5t133.5 -149.5h108q94 0 152 205h119v-105q-45 -138 -116 -221.5t-155 -83.5h-108q-138 0 -234.5 210t-96.5 507t96.5 507t234.5 210h108q84 0 155 -83.5t116 -221.5v-105h-119q-58 205 -152 205h-108z" />
    <glyph glyph-name="D" unicode="D" 
d="M0 409v205h95v1024h-95v205h379q137 0 234 -210t97 -507t-97 -507t-234 -210h-379zM237 1638v-1024h142q78 0 133.5 149.5t55.5 362.5q0 212 -55.5 362t-133.5 150h-142z" />
    <glyph glyph-name="E" unicode="E" 
d="M710 1843v-205h-568v-409h379v-205h-379v-409h568v-205h-568h-142v1433h142h568z" />
    <glyph glyph-name="F" unicode="F" 
d="M710 1843v-205h-568v-409h379v-205h-379v-614h-142v1433h142h568z" />
    <glyph glyph-name="G" unicode="G" 
d="M331 1638q-79 0 -134 -150t-55 -362q0 -213 55 -362.5t134 -149.5h79q95 0 152 205h-183v205h331v-205v0q-40 -182 -120.5 -296t-179.5 -114h-79q-138 0 -234.5 210t-96.5 507t96.5 507t234.5 210h79q99 0 179.5 -114.5t120.5 -295.5h-148q-56 205 -152 205h-79z" />
    <glyph glyph-name="H" unicode="H" 
d="M568 1843h142v-1433h-142v614h-426v-614h-142v1433h142v-614h426v614z" />
    <glyph glyph-name="I" unicode="I" 
d="M95 1843h521v-205h-190v-1023h190v-205h-521v205h189v1023h-189v205z" />
    <glyph glyph-name="J" unicode="J" 
d="M616 819q0 -170 -69 -290t-163 -120h-152q-95 0 -163.5 120t-68.5 290h142q0 -85 28 -145t67 -60h142q39 0 67 60t28 145v819h-95v205h331v-205h-94v-819z" />
    <glyph glyph-name="K" unicode="K" 
d="M199 1126l511 -614v-103h-94l-474 569v-569h-142v1434h142v-569l474 569h94v-103z" />
    <glyph glyph-name="L" unicode="L" 
d="M710 614v-204h-568h-142v1433h142v-1229h568z" />
    <glyph glyph-name="M" unicode="M" 
d="M0 1843h95l260 -563l261 563h94v-1434h-142v1024l-213 -461l-213 461v-1024h-142v1434z" />
    <glyph glyph-name="N" unicode="N" 
d="M0 1843h95l473 -1024v1024h142v-1434h-94l-474 1024v-1024h-142v1434z" />
    <glyph glyph-name="O" unicode="O" 
d="M568 921v410q0 127 -27.5 217t-66.5 90h-237q-39 0 -67 -90t-28 -217v-410q0 -127 28 -217t67 -90h237q39 0 66.5 90t27.5 217zM478 1843q94 0 163 -150t69 -362v-410q0 -213 -69.5 -362.5t-166.5 -149.5h-237q-99 0 -168 149.5t-69 362.5v410q0 212 69 362t168 150h241z
" />
    <glyph glyph-name="P" unicode="P" 
d="M478 1024h-336v-615h-142v1434h474q97 0 166.5 -120.5t69.5 -289.5q0 -170 -69 -289.5t-163 -119.5zM474 1229q39 0 66.5 59.5t27.5 144.5q0 84 -27.5 144.5t-66.5 60.5h-332v-409h332z" />
    <glyph glyph-name="Q" unicode="Q" 
d="M616 409l-55 118q-83 -118 -182 -118h-142q-99 0 -168 149.5t-69 362.5v410q0 212 69 362t168 150h241q94 0 163 -150t69 -362l1 -205q0 -257 -75 -454l74 -160v-103h-94zM483 697l-104 224v103h95l70 -152q25 117 25 254l-1 205q0 127 -27.5 217t-66.5 90h-237
q-39 0 -67 -90t-28 -217v-410q0 -127 28 -217t67 -90h142q56 0 104 83z" />
    <glyph glyph-name="R" unicode="R" 
d="M474 1229q39 0 66.5 59.5t27.5 144.5q0 84 -27.5 144.5t-66.5 60.5h-332v-409h332zM710 1433q0 -170 -69.5 -289.5t-166.5 -119.5l236 -512v-103h-94l-285 615h-189v-615h-142v1434h474q97 0 166.5 -120.5t69.5 -289.5z" />
    <glyph glyph-name="S" unicode="S" 
d="M0 819h142q0 -85 28 -145t67 -60h237q39 0 66.5 60t27.5 145q0 84 -27.5 144.5t-66.5 60.5h-237q-99 0 -168 119.5t-69 289.5q0 169 69 289.5t168 120.5h237q97 0 166.5 -120.5t69.5 -289.5h-142q0 84 -27.5 144.5t-66.5 60.5h-237q-39 0 -67 -60.5t-28 -144.5
q0 -85 28 -144.5t67 -59.5h237q97 0 166.5 -120.5t69.5 -289.5q0 -170 -69.5 -290t-166.5 -120h-237q-95 0 -166 120t-71 290z" />
    <glyph glyph-name="T" unicode="T" 
d="M284 410v1228h-284v205h710v-205h-284v-1228h-142z" />
    <glyph glyph-name="U" unicode="U" 
d="M0 1843h142v-922q0 -127 28 -217t67 -90h237q39 0 66.5 90t27.5 217v922h142v-922q0 -213 -69.5 -362.5t-166.5 -149.5h-237q-99 0 -168 149.5t-69 362.5v922z" />
    <glyph glyph-name="V" unicode="V" 
d="M402 409h-94l-308 1331v103h95l260 -1127l261 1127h94v-103z" />
    <glyph glyph-name="W" unicode="W" 
d="M535 755q15 110 24 230.5t9 243.5v614h142v-614q0 -231 -29.5 -449t-64.5 -371h-95l-166 502l-166 -502h-94q-36 153 -65.5 371t-29.5 449v614h142v-614q0 -123 9 -243.5t24 -230.5l180 545z" />
    <glyph glyph-name="X" unicode="X" 
d="M0 409v103l284 614l-284 614v103h95l260 -563l261 563h94v-103l-284 -614l284 -614v-103h-94l-261 563l-260 -563h-95z" />
    <glyph glyph-name="Y" unicode="Y" 
d="M355 1280l261 563h94v-103l-284 -614v-717h-142v717l-284 614v103h95z" />
    <glyph glyph-name="Z" unicode="Z" 
d="M0 1843h710v-103l-521 -1126h521v-205h-710v103l521 1126h-521v205z" />
    <glyph glyph-name="bracketleft" unicode="[" 
d="M189 1843h143h284v-205h-284v-1024h284v-204h-284h-143v1433z" />
    <glyph glyph-name="backslash" unicode="\" 
d="M710 409h-94l-616 1331v103h95l615 -1331v-103z" />
    <glyph glyph-name="bracketright" unicode="]" 
d="M521 1843v-1433h-142h-284v204h284v1024h-284v205h284h142z" />
    <glyph glyph-name="asciicircum" unicode="^" 
d="M0 1024v102l332 717h47l331 -717v-102h-94l-261 563l-260 -563h-95z" />
    <glyph glyph-name="underscore" unicode="_" 
d="M0 409v205h710v-205h-710z" />
    <glyph glyph-name="grave" unicode="`" 
d="M189 1843h237v-205h-76q18 -92 57 -156.5t114 -171.5v-82h-95q-107 153 -172 268.5t-65 346.5z" />
    <glyph glyph-name="a" unicode="a" 
d="M189 409q-78 0 -133.5 90t-55.5 217t55.5 217.5t133.5 90.5h379v102q0 102 -47 102l-426 1v205l426 -1q78 0 133.5 -90t55.5 -217v-717h-142v103q-94 -103 -213 -103h-166zM556 819h-367q-47 0 -47 -103q0 -102 47 -102h166q69 0 124 57.5t77 147.5z" />
    <glyph glyph-name="b" unicode="b" 
d="M0 1843h142v-512q94 102 213 102h119q97 0 166.5 -150t69.5 -362q0 -213 -69.5 -362.5t-166.5 -149.5h-119q-120 0 -213 103v-103h-142v512v922zM355 614h119q39 0 66.5 90t27.5 217t-27.5 217t-66.5 90h-119q-89 0 -151 -90t-62 -217t62 -217t151 -90z" />
    <glyph glyph-name="c" unicode="c" 
d="M568 1024q0 84 -27.5 144t-66.5 60h-237q-39 0 -67 -90t-28 -217t28 -217t67 -90h473v-205h-473q-99 0 -168 149.5t-69 362.5q0 212 69 362t168 150h237q97 0 166.5 -120t69.5 -289h-142z" />
    <glyph glyph-name="d" unicode="d" 
d="M710 1845v-922v-512h-142v103q-94 -103 -213 -103h-118q-99 0 -168 150t-69 362t69 362t168 150h118q118 0 213 -102v512h142zM355 616q88 0 150.5 90t62.5 217t-62.5 217t-150.5 90h-118q-40 0 -67.5 -90t-27.5 -217t27.5 -217t67.5 -90h118z" />
    <glyph glyph-name="e" unicode="e" 
d="M147 1024h421q0 84 -27.5 144t-66.5 60h-237q-31 0 -55.5 -57.5t-34.5 -146.5zM710 1024v-205h-563q10 -90 34.5 -147.5t55.5 -57.5h379v-205h-379q-99 0 -168 149.5t-69 362.5q0 212 69 362t168 150h237q97 0 166.5 -120t69.5 -289z" />
    <glyph glyph-name="f" unicode="f" 
d="M568 1433q0 84 -27.5 144.5t-66.5 60.5h-48q-39 0 -67 -60.5t-28 -144.5v-205h190v-204h-190v-615h-142v615h-189v204h189v205q0 169 69 289.5t168 120.5h48q97 0 166.5 -120.5t69.5 -289.5h-142z" />
    <glyph glyph-name="g" unicode="g" 
d="M521 614q78 0 133.5 -90.5t55.5 -216.5q0 -128 -55.5 -217.5t-133.5 -89.5h-332q-78 0 -133.5 89.5t-55.5 217.5q0 117 48 205q-48 86 -48 204t48 205q-48 88 -48 205q0 127 55.5 217t133.5 90h237q71 0 126 -77q16 30 16 77h142q0 -180 -96 -267q1 -13 1 -40
q0 -128 -55.5 -217.5t-133.5 -89.5h-237v0h-1q-46 -4 -46 -103q0 -102 47 -102h332zM189 204h332q47 0 47 103q0 102 -47 102h-332q-47 0 -47 -102q0 -103 47 -103zM189 1024h237q47 0 47 102q0 103 -47 103h-237q-47 0 -47 -103q0 -102 47 -102z" />
    <glyph glyph-name="h" unicode="h" 
d="M568 923q0 127 -27.5 217t-66.5 90h-119q-88 0 -150.5 -90t-62.5 -217v-512h-142v512v922h142v-512q94 102 213 102h119q97 0 166.5 -150t69.5 -362l1 -511h-143v511z" />
    <glyph glyph-name="i" unicode="i" 
d="M426 616h190v-204h-521v204h189v615h-95v205h237v-205v-615zM284 1845h142v-205h-142v205z" />
    <glyph glyph-name="j" unicode="j" 
d="M474 1843h142v-205h-142v205zM616 307q0 -128 -56 -217.5t-134 -89.5h-237q-78 0 -133.5 89.5t-55.5 217.5v307h142v-307q0 -103 47 -103h237q48 0 48 103v1126h142v-1126z" />
    <glyph glyph-name="k" unicode="k" 
d="M142 889l284 546h95v-102l-205 -393l394 -426v-103h-94l-368 398l-106 -204v-194h-142v1434h142v-956z" />
    <glyph glyph-name="l" unicode="l" 
d="M426 614h95v-204h-332v204h95v1024h-95v205h237v-205v-1024z" />
    <glyph glyph-name="m" unicode="m" 
d="M284 616v102q0 169 -38 340.5t-66 171.5q-29 0 -33.5 -64t-4.5 -140v-615h-142v1024h142q63 0 118.5 -65.5t94.5 -176.5q39 111 94 176.5t119 65.5q59 0 100.5 -120t41.5 -289v-615h-142v615q0 76 -5 140t-33 64t-66 -171.5t-38 -340.5v-102h-142z" />
    <glyph glyph-name="n" unicode="n" 
d="M568 920q0 127 -27.5 217t-66.5 90h-119q-89 0 -151 -90t-62 -217v-512h-142v512v513h142v-103q94 102 213 102h119q97 0 166.5 -150t69.5 -362v-512h-142v512z" />
    <glyph glyph-name="o" unicode="o" 
d="M237 614h237q39 0 66.5 90t27.5 218q0 126 -27.5 216.5t-66.5 90.5h-237q-39 0 -67 -90.5t-28 -216.5q0 -128 28 -218t67 -90zM237 410q-99 0 -168 149.5t-69 362.5q0 211 69 361t168 150h237q97 0 166.5 -150t69.5 -361q0 -213 -69.5 -362.5t-166.5 -149.5h-237z" />
    <glyph glyph-name="p" unicode="p" 
d="M0 1433h142v-82q93 82 213 82h118q98 0 167.5 -120t69.5 -290t-69.5 -289.5t-167.5 -119.5h-118q-120 0 -213 82v-696h-142v1023v410zM473 819q39 0 67 59.5t28 144.5t-28 145t-67 60h-118q-88 0 -150.5 -60t-62.5 -145t62.5 -144.5t150.5 -59.5h118z" />
    <glyph glyph-name="q" unicode="q" 
d="M710 1433v-409v-1024h-142v696q-95 -82 -213 -82h-118q-99 0 -168 119.5t-69 290.5q0 169 69 289t168 120h118q119 0 213 -82v82h142zM237 819h118q88 0 150.5 60t62.5 145q0 84 -62.5 144t-150.5 60h-118q-39 0 -67 -60t-28 -144q0 -86 28 -145.5t67 -59.5z" />
    <glyph glyph-name="r" unicode="r" 
d="M568 1024q0 84 -27.5 144t-66.5 60h-24q-89 0 -151 -60t-62 -144v-615h-142v615v0q0 115 -23.5 182t-71.5 125v102h95q62 -67 93 -134q104 134 262 134h24q97 0 166.5 -120t69.5 -289h-142z" />
    <glyph glyph-name="s" unicode="s" 
d="M616 1435v-205h-427q-47 0 -47 -102t47 -102h332q78 0 133.5 -90.5t55.5 -217.5t-55.5 -217t-133.5 -90h-521v205h521q47 0 47 102q0 103 -47 103h-332q-78 0 -133.5 89.5t-55.5 217.5q0 127 55.5 217t133.5 90h427z" />
    <glyph glyph-name="t" unicode="t" 
d="M189 821v409h-189v205h189v410h143v-410h189v-205h-189l-1 -409q0 -85 21 -145t51 -60t50.5 60t20.5 145h132q0 -170 -60.5 -290t-146.5 -120q-87 0 -148.5 120t-61.5 290z" />
    <glyph glyph-name="u" unicode="u" 
d="M0 1433h142v-614q0 -85 28 -145t67 -60h23q88 0 150.5 60t62.5 145l1 614h142l-1 -614h1q0 -116 23 -183t71 -124v-103h-94q-61 65 -93 134q-107 -134 -263 -134h-23q-99 0 -168 120t-69 290v614z" />
    <glyph glyph-name="v" unicode="v" 
d="M568 1228v205h142q0 -192 -18.5 -318.5t-58.5 -232t-103 -213t-151 -260.5h-47q-89 153 -152 260.5t-103 213t-58.5 232t-18.5 318.5h142v-205q0 -177 58.5 -299t154.5 -293q96 171 147 294.5t66 297.5z" />
    <glyph glyph-name="w" unicode="w" 
d="M527 706l8 51q15 110 24 230t9 243v205h142v-205q0 -231 -29.5 -448.5t-64.5 -370.5h-95l-166 359l-166 -359h-94q-36 153 -65.5 370.5t-29.5 448.5v205h142v-205q0 -123 9 -243t24 -230l9 -51l171 371z" />
    <glyph glyph-name="x" unicode="x" 
d="M0 409v103l234 406l-234 413v102h85l223 -387l222 387h86v-102l-234 -413l234 -406v-103h-95l-213 377l-213 -377h-95z" />
    <glyph glyph-name="y" unicode="y" 
d="M474 696q-97 -82 -214 -82h-23q-99 0 -168 119.5t-69 290.5v409h142v-409q0 -85 28 -145t67 -60h23q88 0 150.5 60t62.5 145l1 409h142v-1126q0 -128 -56 -217.5t-134 -89.5h-237q-78 0 -133.5 89.5t-55.5 217.5v102h142v-102q0 -103 47 -103h237q48 0 48 103v389z" />
    <glyph glyph-name="z" unicode="z" 
d="M710 614v-205h-615h-95v103l479 716h-479v205h616h94v-102l-478 -717h478z" />
    <glyph glyph-name="braceleft" unicode="{" 
d="M189 1231h143q46 0 46 96q0 77 -47.5 110.5t-47.5 135.5t56 187.5t135 85.5h236v-205h-236q-21 0 -35 -33.5t-14 -75.5q0 -77 47.5 -110.5t47.5 -135.5q0 -85 -40 -157q40 -72 40 -157q0 -102 -47.5 -136t-47.5 -110q0 -43 14 -76t35 -33h236v-205h-236q-79 0 -135 85.5
t-56 187.5t47.5 135t47.5 111q0 95 -46 95h-143v205z" />
    <glyph glyph-name="bar" unicode="|" 
d="M284 412v1433h142v-1433h-142z" />
    <glyph glyph-name="braceright" unicode="}" 
d="M521 1228v-204h-142q-47 0 -47 -96q0 -78 47.5 -111t47.5 -135t-56 -187.5t-134 -85.5h-237v205h237q19 0 33.5 33t14.5 76q0 76 -47.5 110t-47.5 136q0 85 40 157q-40 72 -40 157q0 102 47.5 135.5t47.5 110.5q0 42 -14.5 75.5t-33.5 33.5h-237v205h237q78 0 134 -85.5
t56 -187.5t-47.5 -135.5t-47.5 -110.5q0 -96 47 -96h142z" />
    <glyph glyph-name="asciitilde" unicode="~" 
d="M521 1433q47 0 47 103v307h142v-307q0 -128 -55.5 -218t-133.5 -90q-99 0 -168 90t-69 218q0 102 -95 102q-47 0 -47 -102v-308h-142v308q0 126 55.5 216.5t133.5 90.5q98 0 167.5 -90.5t69.5 -216.5q0 -103 95 -103z" />
    <glyph glyph-name="exclamdown" unicode="&#xa1;" 
d="M284 1434h142v-1024h-142v1024zM284 1844h142v-205h-142v205z" />
    <glyph glyph-name="cent" unicode="&#xa2;" 
d="M237 410q-99 0 -168 149.5t-69 362.5q0 211 69 361t168 150h47v205h142v-205h48q85 0 150 -117t82 -292h-143q-10 89 -34.5 147t-54.5 58h-48v-615h48q30 0 54.5 57.5t34.5 147.5h143q-17 -176 -82 -292.5t-150 -116.5h-48v-205h-142v205h-47zM284 614v615h-47
q-39 0 -67 -90.5t-28 -216.5q0 -128 28 -218t67 -90h47z" />
    <glyph glyph-name="sterling" unicode="&#xa3;" 
d="M142 614v-204h47v204h-47zM0 1229h189v204q0 170 69 290t168 120h48q97 0 166.5 -120t69.5 -290h-142q0 85 -27.5 145t-66.5 60h-48q-39 0 -67 -60t-28 -145v-204h190v-205h-190v-205q106 0 145.5 -32.5t62 -70.5t52.5 -70t119 -32v-204q-107 0 -146 31.5t-61.5 70
t-53 70.5t-118.5 32v-102q0 -128 -48.5 -217.5t-116.5 -89.5q-69 0 -117.5 89.5t-48.5 217.5q0 127 48.5 217t117.5 90h23v205h-189v205z" />
    <glyph glyph-name="currency" unicode="&#xa4;" 
d="M0 614v102l140 210q-45 86 -45 200q0 106 40 190l-135 220v102h95l143 -214q22 9 46 9h143q23 0 46 -9l143 214h94v-102l-139 -210q46 -88 46 -200q0 -113 -46 -200l139 -210v-102h-142l-126 206q-5 -1 -15 -1h-143q-24 0 -46 9l-143 -214h-95zM284 1024h143q47 0 47 102
q0 103 -47 103h-143q-47 0 -47 -103q0 -102 47 -102z" />
    <glyph glyph-name="yen" unicode="&#xa5;" 
d="M355 1280l261 563h94v-102l-284 -615v-102h284v-205h-284v-409h-142v409h-284v205h284v102l-284 615v102h95z" />
    <glyph glyph-name="brokenbar" unicode="&#xa6;" 
d="M284 1024h142v-820h-142v820zM284 2047h142v-819h-142v819z" />
    <glyph glyph-name="section" unicode="&#xa7;" 
d="M426 1024v0h1q46 1 46 102q0 103 -47 103h-142q-48 0 -48 -103q0 -102 48 -102h142v0zM426 819v0h-142q-79 0 -134 90t-55 217q0 118 48 205q-48 86 -48 205q0 127 55 217t134 90h331v-205h-331q-48 0 -48 -102q0 -103 48 -103h142q78 0 133.5 -90t55.5 -217
q0 -117 -48 -205q48 -87 48 -204q0 -128 -55.5 -217.5t-133.5 -89.5h-331v204h331q47 0 47 103q0 100 -46 102h-1z" />
    <glyph glyph-name="dieresis" unicode="&#xa8;" 
d="M474 2047h142v-205h-142v205zM95 2047h142v-205h-142v205z" />
    <glyph glyph-name="copyright" unicode="&#xa9;" 
d="M710 1024q0 -340 -90 -579.5t-217 -239.5h-95q-128 0 -218 239.5t-90 579.5q0 339 90 579t218 240h95q127 0 217 -240t90 -579zM521 819v-205h-142q-79 0 -134.5 90t-55.5 217v205q0 127 55.5 217t134.5 90h142v-204h-142q-47 0 -47 -103v-205q0 -102 47 -102h142z
M568 1024q0 254 -48.5 434t-116.5 180h-95q-69 0 -117.5 -180t-48.5 -434q0 -255 48.5 -435t117.5 -180h95q68 0 116.5 180t48.5 435z" />
    <glyph glyph-name="ordfeminine" unicode="&#xaa;" 
d="M189 818q-78 0 -133.5 90t-55.5 218q0 126 55.5 216.5t133.5 90.5h379v102q0 103 -47 103h-426v205l426 -1q78 0 133.5 -90t55.5 -217v-717h-142v103q-95 -103 -213 -103h-118h-48zM556 1228h-367q-47 0 -47 -102q0 -103 47 -103h166q69 0 124 57.5t77 147.5zM0 614h710
v-205h-710v205z" />
    <glyph glyph-name="guillemotleft" unicode="&#xab;" 
d="M426 1126l284 -614v-103h-94l-332 717l332 717h94v-102zM142 1126l284 -614v-103h-95l-331 717l331 717h95v-102z" />
    <glyph glyph-name="uni00AD" unicode="&#xad;" 
d="M189 1229h332v-205h-332v205z" />
    <glyph glyph-name="registered" unicode="&#xae;" 
d="M331 1024h48v204h-48v-204zM710 1023q0 -339 -90 -579t-217 -240h-95q-128 0 -218 240t-90 579t90 579t218 240h95q127 0 217 -240t90 -579zM568 1023q0 255 -48.5 435t-116.5 180h-95q-69 0 -117.5 -180t-48.5 -435t48.5 -434.5t117.5 -179.5h95q68 0 116.5 179.5
t48.5 434.5zM485 921q36 -89 36 -205v-102h-142v205h-48v-205h-142v819h190q58 0 100 -90t42 -217q0 -117 -36 -205z" />
    <glyph glyph-name="macron" unicode="&#xaf;" 
d="M189 1843h332v-205h-332v205z" />
    <glyph glyph-name="degree" unicode="&#xb0;" 
d="M284 1229q-78 0 -133.5 89.5t-55.5 217.5q0 126 55.5 216.5t133.5 90.5h142q78 0 134 -90.5t56 -216.5q0 -128 -56 -217.5t-134 -89.5h-142zM284 1433h142q48 0 48 103q0 102 -48 102h-142q-47 0 -47 -102q0 -103 47 -103z" />
    <glyph glyph-name="plusminus" unicode="&#xb1;" 
d="M284 1639h142v-410h284v-205h-284v-409h284v-205h-710v205h284v409h-284v205h284v410z" />
    <glyph glyph-name="uni00B2" unicode="&#xb2;" 
d="M95 1740q0 127 41 217.5t101 90.5h237q58 0 100 -90.5t42 -217.5q0 -295 -124.5 -371.5t-202.5 -139.5h327v-205h-521v102q0 192 59 283t130 139t130.5 81.5t59.5 110.5q0 103 -72 103h-94q-71 0 -71 -103v-102h-142v102z" />
    <glyph glyph-name="uni00B3" unicode="&#xb3;" 
d="M470 1630q63 -24 104.5 -107.5t41.5 -191.5q0 -128 -56 -217.5t-134 -89.5h-331v205h331q48 0 48 102t-48 102h-142v103l142 307h-331v205h521v-103z" />
    <glyph glyph-name="acute" unicode="&#xb4;" 
d="M521 2047h95v-103l-332 -307h-95v103z" />
    <glyph glyph-name="mu" unicode="&#xb5;" 
d="M710 410h-142v112q-76 -112 -165 -112q-91 0 -166 112v-112q0 -93 -14.5 -161t-34.5 -115q-28 -64 -93 -134h-95v102q48 58 71.5 125t23.5 183v0v1024h142v-308q0 -212 48.5 -362t117.5 -150q68 0 116.5 150t48.5 362v308h142v-1024z" />
    <glyph glyph-name="paragraph" unicode="&#xb6;" 
d="M232 1023q-95 0 -163.5 119.5t-68.5 290.5q0 169 69 289t168 120h473v-1433h-142v614h-47v-614h-142v614h-147zM521 1638v-410h47v410h-47zM379 1228v409h-48q-39 0 -66.5 -60t-27.5 -144q0 -85 27.5 -145t66.5 -60h48z" />
    <glyph glyph-name="periodcentered" unicode="&#xb7;" 
d="M189 1024v409h237v-409h-237z" />
    <glyph glyph-name="cedilla" unicode="&#xb8;" 
d="M379 614h142v-307q0 -128 -56 -217.5t-134 -89.5h-142v204h142q48 0 48 103v307z" />
    <glyph glyph-name="uni00B9" unicode="&#xb9;" 
d="M189 1228h95v410h-95v102l142 307h95v-819h95v-205h-332v205z" />
    <glyph glyph-name="ordmasculine" unicode="&#xba;" 
d="M237 818q-99 0 -168 150t-69 362t69 362t168 150h237q97 0 166.5 -150t69.5 -362t-69.5 -362t-166.5 -150h-237zM237 1023h237q39 0 66.5 90t27.5 217t-27.5 217.5t-66.5 90.5h-237q-39 0 -67 -90.5t-28 -217.5t28 -217t67 -90zM0 613h710v-204h-710v204z" />
    <glyph glyph-name="guillemotright" unicode="&#xbb;" 
d="M283 1121l-283 615v102h93l332 -717l-332 -717h-93v103zM567 1121l-284 615v102h94l332 -717l-332 -717h-94v103z" />
    <glyph glyph-name="onequarter" unicode="&#xbc;" 
d="M95 1433h-95v102l142 307h95v-819h-142v410zM616 1638v-103l-521 -1126h-95v102l521 1127h95zM474 613v-204h-95zM616 1023v-614h94v-205h-94v-204h-142v204h-285v102l332 717h95z" />
    <glyph glyph-name="onehalf" unicode="&#xbd;" 
d="M95 1393h-95v102l142 307h95v-819l284 615h95v-103l-251 -542q30 30 61 30h142q59 0 100.5 -90t41.5 -217q0 -200 -63 -312.5t-132 -199.5h195v-204h-426v102q0 115 44 196.5t97.5 148.5t98 129.5t44.5 139.5q0 103 -71 103t-71 -103v-102h-142v102q0 69 14 132
l-203 -439h-95v102l237 512h-142v410z" />
    <glyph glyph-name="threequarters" unicode="&#xbe;" 
d="M280 1424q107 -41 139 -212l197 426h94v-103l-521 -1126h-94v102l142 307h-237v205h237q47 0 47 102q0 103 -47 103h-142v102l142 308h-237v204h426v-102zM710 1023v-614h95v-205h-95v-204h-142v204h-284v102l332 717h94zM568 613v-204h-94z" />
    <glyph glyph-name="questiondown" unicode="&#xbf;" 
d="M426 1638h-142v204h142v-204zM426 1433v-205q0 -154 -65.5 -282t-171.5 -128q-47 0 -47 -102q0 -104 47 -102h285q39 0 66.5 59.5t27.5 144.5h142q0 -170 -69.5 -289.5t-166.5 -119.5h-285q-78 0 -133.5 89.5t-55.5 217.5q0 126 55.5 216.5t133.5 90.5q50 0 72.5 63.5
t22.5 141.5v205h142z" />
    <glyph glyph-name="Agrave" unicode="&#xc0;" 
d="M525 1024q-24 93 -65 183t-105 205q-65 -115 -106 -205t-64 -183h340zM568 819h-426v-409h-142v204q0 192 18.5 318t58 232t102.5 213t152 261h47q88 -154 151 -261t103 -213t59 -232t19 -318v-204h-142v409zM284 2048l332 -307v-103h-95l-332 308v102h95z" />
    <glyph glyph-name="Aacute" unicode="&#xc1;" 
d="M525 1024q-24 93 -65 183t-105 205q-65 -115 -106 -205t-64 -183h340zM568 819h-426v-409h-142v204q0 192 18.5 318t58.5 232t103 213t152 261h47q88 -154 151 -261t102.5 -213t58.5 -232t19 -318v-204h-142v409zM426 2048h95v-102l-332 -308h-94v103z" />
    <glyph glyph-name="Acircumflex" unicode="&#xc2;" 
d="M525 1024q-24 94 -65 183.5t-105 204.5q-65 -115 -106 -204.5t-64 -183.5h340zM568 819h-426v-409h-142v205q0 192 18.5 318t58.5 231.5t103 213t152 261.5h46q88 -154 151 -261.5t103 -213t59 -231.5t19 -318v-205h-142v409zM355 1854l-166 -215h-94v102l237 307h47
l237 -307v-102h-95z" />
    <glyph glyph-name="Atilde" unicode="&#xc3;" 
d="M525 1024q-24 93 -65 183t-105 205q-65 -115 -106 -205t-64 -183h340zM568 819h-426v-410h-142v205q0 192 18.5 318t58 232t102.5 213t152 261h47q88 -154 151 -261t103 -213t59 -232t19 -318v-205h-142v410zM641 2048h69v-103l-29 -77q-51 -133 -117.5 -204.5
t-138.5 23.5q-24 32 -44 71l-18 30t-18 27q-47 61 -92 -7.5t-78 -144.5l-11 -25h-69v103q16 49 29 77q54 123 119 199t137 -18q19 -28 44 -71q28 -47 36 -58q46 -61 91 7t79 146z" />
    <glyph glyph-name="Adieresis" unicode="&#xc4;" 
d="M474 2048h142v-205h-142v205zM95 2048h142v-205h-142v205zM525 1024q-24 94 -65 183.5t-105 204.5q-65 -115 -105.5 -204.5t-64.5 -183.5h340zM568 819h-426v-409h-142v205q0 192 18.5 318t58.5 231.5t103 213t152 261.5h47q88 -154 151 -261.5t102.5 -213t58.5 -231.5
t19 -318v-205h-142v409z" />
    <glyph glyph-name="Aring" unicode="&#xc5;" 
d="M570 820h-426v-409h-142v204q0 318 52 476t169 361q-127 72 -127 290q0 126 55.5 216.5t134.5 90.5h142q78 0 133.5 -90.5t55.5 -216.5q0 -220 -127 -290q117 -203 169 -361t52 -476l1 -204h-142v409zM333 1639v0h47v0h48q47 0 47 103q0 102 -47 102h-142q-48 0 -48 -102
q0 -103 48 -103h47zM527 1025q-24 93 -65.5 183t-105.5 205q-64 -115 -105 -205t-65 -183h341z" />
    <glyph glyph-name="AE" unicode="&#xc6;" 
d="M142 1024h142v617q-65 -127 -103 -276.5t-39 -340.5zM239 1843h471v-205h-284v-409h190v-205h-190v-410h284v-205h-426v410h-142v-410h-142v569q0 329 56 489t183 376z" />
    <glyph glyph-name="Ccedilla" unicode="&#xc7;" 
d="M379 410h-48q-138 0 -234.5 209.5t-96.5 506.5t96.5 507t234.5 210h108q84 0 155 -83t116 -221v-105h-119q-58 204 -152 204h-108q-78 0 -133.5 -150t-55.5 -362t55.5 -361.5t133.5 -149.5h108q94 0 152 204h119v-105q-71 -218 -189 -282v-125q0 -127 -56 -217t-134 -90
h-142v205h142q48 0 48 102v103z" />
    <glyph glyph-name="Egrave" unicode="&#xc8;" 
d="M189 2048l332 -307v-103h189v-204h-568v-205h379v-205h-379v-409h568v-205h-710v1228h426l-331 308v102h94z" />
    <glyph glyph-name="Eacute" unicode="&#xc9;" 
d="M710 1638v-205h-568v-204h379v-205h-379v-410h568v-205h-568h-142v1229h189v103l332 307h95v-103l-332 -307h426z" />
    <glyph glyph-name="Ecircumflex" unicode="&#xca;" 
d="M742 614v-204h-711v1228h95v103l237 307h47l237 -307v-103h95v-205h-569v-204h379v-205h-379v-410h569zM552 1638l-166 215l-165 -215h331z" />
    <glyph glyph-name="Edieresis" unicode="&#xcb;" 
d="M95 2048h142v-205h-142v205zM474 2048h142v-205h-142v205zM710 614v-205h-710v1229h710v-205h-568v-204h379v-205h-379v-410h568z" />
    <glyph glyph-name="Igrave" unicode="&#xcc;" 
d="M284 2048l332 -307v-103v-204h-190v-819h190v-205h-521v205h189v819h-189v204h426l-332 308v102h95z" />
    <glyph glyph-name="Iacute" unicode="&#xcd;" 
d="M426 2048h95v-102l-332 -307h427v-205h-190v-819h190v-205h-521v205h189v819h-189v205v102z" />
    <glyph glyph-name="Icircumflex" unicode="&#xce;" 
d="M355 1853l-166 -215h332zM95 1638v103l236 307h48l237 -307v-103v-205h-190v-819h190v-205h-521v205h189v819h-189v205z" />
    <glyph glyph-name="Idieresis" unicode="&#xcf;" 
d="M237 2048v-205h-142v205h142zM95 614h189v819h-189v205h521v-205h-190v-819h190v-205h-521v205zM616 2048v-205h-142v205h142z" />
    <glyph glyph-name="Eth" unicode="&#xd0;" 
d="M0 410v205h95v409h-95v205h95v409h-95v205h379q137 0 234 -210t97 -507t-97 -506.5t-234 -209.5h-379zM237 1229h142v-205h-142v-409h142q78 0 133.5 149.5t55.5 361.5t-55.5 362t-133.5 150h-142v-409z" />
    <glyph glyph-name="Ntilde" unicode="&#xd1;" 
d="M0 1840h95l20 -44q3 5 4.5 10.5t4.5 10.5q55 123 119.5 198.5t136.5 -18.5q16 -20 44 -70q9 -15 18 -30.5t18 -27.5q46 -61 91 7t79 146l11 25h69v-103l-29 -78q-3 -6 -5.5 -13t-4.5 -13h39v-1433h-94l-474 1024v-1024h-142v1433zM176 1664l392 -847v850q-74 -72 -143 19
q-19 25 -44 70q-27 46 -36 58q-46 60 -90.5 -6.5t-78.5 -143.5z" />
    <glyph glyph-name="Ograve" unicode="&#xd2;" 
d="M478 1638q94 0 163 -150t69 -362v-205q0 -213 -69.5 -362.5t-166.5 -149.5h-237q-99 0 -168 149.5t-69 362.5v205q0 212 69 362t168 150h241zM284 2048l332 -308v-102h-95l-332 307v103h95zM568 921v205q0 127 -27.5 217t-66.5 90h-237q-40 0 -67.5 -90t-27.5 -217v-205
q0 -127 27.5 -217t67.5 -90h237q39 0 66.5 90t27.5 217z" />
    <glyph glyph-name="Oacute" unicode="&#xd3;" 
d="M426 2048h95v-103l-332 -307h-94v102zM478 1638q94 0 163 -150t69 -362v-205q0 -213 -69.5 -362.5t-166.5 -149.5h-237q-99 0 -168 149.5t-69 362.5v205q0 212 69 362t168 150h241zM568 921v205q0 127 -27.5 217t-66.5 90h-237q-39 0 -67 -90t-28 -217v-205
q0 -128 28 -217.5t67 -89.5h237q39 0 66.5 89.5t27.5 217.5z" />
    <glyph glyph-name="Ocircumflex" unicode="&#xd4;" 
d="M355 1853l-166 -215h-94v102l237 308h47l237 -308v-102h-95zM478 1638q94 0 163 -150t69 -362v-205q0 -213 -69.5 -362.5t-166.5 -149.5h-237q-99 0 -168 149.5t-69 362.5v205q0 212 69 362t168 150h241zM568 921v205q0 127 -27.5 217t-66.5 90h-237q-39 0 -67 -90
t-28 -217v-205q0 -128 28 -217.5t67 -89.5h237q39 0 66.5 89.5t27.5 217.5z" />
    <glyph glyph-name="Otilde" unicode="&#xd5;" 
d="M546 2049h70v-103l-30 -77q-51 -133 -117.5 -204.5t-138.5 23.5q-12 15 -22.5 33.5t-21.5 37.5q-22 39 -36 57q-47 61 -91.5 -7t-78.5 -145l-11 -25h-69v103q8 28 29 77q55 123 119.5 199t136.5 -18q16 -21 44 -71q28 -47 36 -58q46 -61 91 7.5t79 145.5zM478 1638
q94 0 163 -150t69 -362v-205q0 -213 -69.5 -362.5t-166.5 -149.5h-237q-99 0 -168 149.5t-69 362.5v205q0 212 69 362t168 150h241zM568 921v205q0 127 -27.5 217t-66.5 90h-237q-39 0 -67 -90t-28 -217v-205q0 -128 28 -217.5t67 -89.5h237q39 0 66.5 89.5t27.5 217.5z" />
    <glyph glyph-name="Odieresis" unicode="&#xd6;" 
d="M474 2048h142v-205h-142v205zM95 2048h142v-205h-142v205zM478 1638q94 0 163 -150t69 -362v-204q0 -213 -69.5 -362.5t-166.5 -149.5h-237q-99 0 -168 149.5t-69 362.5v204q0 212 69 362t168 150h241zM568 922v204q0 127 -27.5 217t-66.5 90h-237q-40 0 -67.5 -90
t-27.5 -217v-204q0 -128 27.5 -218t67.5 -90h237q39 0 66.5 90t27.5 218z" />
    <glyph glyph-name="multiply" unicode="&#xd7;" 
d="M616 614h-95l-166 359l-166 -359h-94v103l189 409l-189 410v102h94l166 -358l166 358h95v-102l-190 -410l190 -409v-103z" />
    <glyph glyph-name="Oslash" unicode="&#xd8;" 
d="M568 922v409q0 95 -15 169l-313 -886h234q39 0 66.5 90t27.5 218zM471 1638h-234q-39 0 -67 -90t-28 -217v-409q0 -93 16 -169zM710 1946l-80 -228q80 -154 80 -387v-409q0 -213 -69.5 -362.5t-166.5 -149.5h-237q-33 0 -63 18l-79 -223h-95v102l81 229q-81 152 -81 386
v409q0 212 69 362t168 150h241q29 0 59 -17l79 222h94v-102z" />
    <glyph glyph-name="Ugrave" unicode="&#xd9;" 
d="M95 1609h142v-717q0 -128 27.5 -217.5t66.5 -89.5h237q39 0 67 89.5t28 217.5v717h142v-717q0 -213 -69.5 -362.5t-167.5 -149.5h-237q-98 0 -167 149.5t-69 362.5v717zM189 2018l332 -307v-102h-95l-331 307v102h94z" />
    <glyph glyph-name="Uacute" unicode="&#xda;" 
d="M521 2048h95v-102l-332 -308h-95v103zM0 1638h142v-716q0 -128 28 -218t67 -90h237q39 0 66.5 90t27.5 218v716h142v-716q0 -213 -69.5 -362.5t-166.5 -149.5h-237q-99 0 -168 149.5t-69 362.5v716z" />
    <glyph glyph-name="Ucircumflex" unicode="&#xdb;" 
d="M284 1638h-95v102l143 308h47l142 -308v-102h-95l-71 154zM0 1638h142v-717q0 -128 28 -217.5t67 -89.5h237q39 0 66.5 89.5t27.5 217.5v717h142v-717q0 -213 -69.5 -362.5t-166.5 -149.5h-237q-99 0 -168 149.5t-69 362.5v717z" />
    <glyph glyph-name="Udieresis" unicode="&#xdc;" 
d="M474 2048h142v-205h-142v205zM95 2048h142v-205h-142v205zM0 1638h142v-717q0 -128 28 -217.5t67 -89.5h237q39 0 66.5 89.5t27.5 217.5v717h142v-717q0 -213 -69.5 -362.5t-166.5 -149.5h-237q-99 0 -168 149.5t-69 362.5v717z" />
    <glyph glyph-name="Ydieresis" unicode="&#x178;" 
d="M95 2048h142v-205h-142v205zM474 2048h142v-205h-142v205zM355 1075l261 563h94v-102l-284 -614v-512h-142v512l-284 614v102h95z" />
    <glyph glyph-name="Yacute" unicode="&#xdd;" 
d="M426 2048h95v-102l-332 -307h-94v102zM355 1075l261 563h94v-102l-284 -614v-512h-142v512l-284 614v102h95z" />
    <glyph glyph-name="germandbls" unicode="&#xdf;" 
d="M189 1024v205h95h95q39 0 67 59.5t28 144.5q0 84 -28 144.5t-67 60.5h-47q-79 0 -134.5 -150t-55.5 -362v-922h-142v922q0 297 97 507t235 210h47q98 0 167.5 -120.5t69.5 -289.5q0 -183 -79 -304q78 -71 125.5 -179t47.5 -234q0 -127 -55.5 -217t-133.5 -90h-142
q-79 0 -134.5 90t-55.5 217v103h142l1 -103q0 -102 47 -102h142q47 0 47 102q0 127 -83.5 217.5t-200.5 90.5h-95z" />
    <glyph glyph-name="agrave" unicode="&#xe0;" 
d="M188 423q-79 0 -133.5 89.5t-54.5 217.5q0 126 54.5 216.5t133.5 90.5l379 1v101q0 103 -48 103h-426v205h426q78 0 134 -90.5t56 -217.5v-716h-142v102q-96 -102 -213 -102h-166zM283 1857l331 -308v-102h-95l-331 307v103h95zM555 832h-367q-47 0 -47 -102
q0 -103 47 -103h166q69 0 123.5 57.5t77.5 147.5z" />
    <glyph glyph-name="aacute" unicode="&#xe1;" 
d="M556 819h-367q-47 0 -47 -103q0 -102 47 -102h166q69 0 124 57.5t77 147.5zM189 409q-78 0 -133.5 90t-55.5 217t55.5 217.5t133.5 90.5h379v103q0 102 -47 102h-426v307l331 307h95v-102l-332 -307h332q78 0 133.5 -90.5t55.5 -217.5v-717h-142v103q-94 -103 -213 -103
h-166z" />
    <glyph glyph-name="acircumflex" unicode="&#xe2;" 
d="M363 1854l-166 -215h-95v103l237 307h47l237 -307v-103h-95zM197 410q-79 0 -134.5 89.5t-55.5 217.5q0 127 55.5 217t134.5 90l379 1v102q0 102 -48 102l-426 1v204h426q78 0 134 -90.5t56 -216.5v-717h-142v102q-96 -102 -213 -102h-166zM564 819h-367q-48 0 -48 -102
t48 -102h166q69 0 123.5 57t77.5 147z" />
    <glyph glyph-name="atilde" unicode="&#xe3;" 
d="M641 2048h69v-102l-29 -78q-51 -133 -117.5 -204.5t-138.5 23.5q-20 27 -44 71l-18 30t-18 28q-47 60 -92 -8t-78 -145l-11 -25h-69v103q14 44 29 77q54 123 119 199t137 -18q19 -28 44 -71q28 -47 36 -58q46 -61 91 7t79 146zM189 409q-78 0 -133.5 90t-55.5 217
t55.5 217t133.5 90l379 1v102q0 102 -47 102l-426 1v204h426q78 0 133.5 -90.5t55.5 -216.5v-717h-142v102q-95 -102 -213 -102h-166zM556 819h-367q-47 0 -47 -103q0 -102 47 -102h166q69 0 124 57.5t77 147.5z" />
    <glyph glyph-name="adieresis" unicode="&#xe4;" 
d="M95 1843h142v-205h-142v205zM474 1843h142v-205h-142v205zM556 819h-367q-47 0 -47 -103q0 -102 47 -102h166q69 0 124 57.5t77 147.5zM189 409q-78 0 -133.5 90t-55.5 217t55.5 217.5t133.5 90.5h379v102q0 103 -47 103h-426v205l426 -1q78 0 133.5 -90t55.5 -217v-717
h-142v103q-94 -103 -213 -103h-166z" />
    <glyph glyph-name="aring" unicode="&#xe5;" 
d="M284 1638h142q48 0 48 103q0 102 -48 102h-142q-47 0 -47 -102q0 -103 47 -103zM556 818h-367q-47 0 -47 -102t47 -102h166q69 0 124 57t77 147zM189 409q-78 0 -133.5 89.5t-55.5 217.5q0 127 55.5 217t133.5 90l379 1v101q0 103 -47 103l-426 1v204h189
q-78 0 -133.5 90t-55.5 218q0 126 55.5 216.5t133.5 90.5h142q78 0 134 -90.5t56 -216.5q0 -128 -56 -218t-134 -90h95q78 0 133.5 -90.5t55.5 -217.5v-716h-142v102q-95 -102 -213 -102h-166z" />
    <glyph glyph-name="ae" unicode="&#xe6;" 
d="M284 819l-95 -1q-47 0 -47 -102t47 -102h95v205zM426 1125v-101h142v101q0 103 -47 103h-47q-48 0 -48 -103zM355 1365v1q52 67 119 67h47q78 0 133.5 -90t55.5 -217v-307h-284v-103q0 -102 48 -102l236 1v-205l-236 -1q-23 0 -48 10v-10h-237q-78 0 -133.5 89.5
t-55.5 217.5q0 127 55.5 217t133.5 90l95 1v101q0 103 -47 103l-142 1v204h142q66 0 118 -68z" />
    <glyph glyph-name="ccedilla" unicode="&#xe7;" 
d="M236 409q-98 0 -167 149.5t-69 362.5q0 212 69 362t167 150h254q75 0 134 -90t86 -231v-88h-130q-10 89 -34.5 147t-55.5 58h-254q-39 0 -66.5 -90.5t-27.5 -217.5t27.5 -217t66.5 -90h254q31 0 55.5 57.5t34.5 147.5h130v-89q-24 -126 -74.5 -212.5t-114.5 -103.5v-107
q0 -128 -56 -217.5t-134 -89.5h-142v205h142q48 0 48 102v102h-143z" />
    <glyph glyph-name="egrave" unicode="&#xe8;" 
d="M147 1024h421q0 84 -27.5 144.5t-66.5 60.5h-237q-31 0 -55.5 -58t-34.5 -147zM284 1843l332 -307v-103h-95l-332 308v102h95zM710 1024v-205h-563q10 -90 34.5 -147.5t55.5 -57.5h379v-204h-379q-99 0 -168 149.5t-69 362.5q0 211 69 361t168 150h237q97 0 166.5 -120
t69.5 -289z" />
    <glyph glyph-name="eacute" unicode="&#xe9;" 
d="M147 1024h421q0 84 -27.5 144.5t-66.5 60.5h-237q-31 0 -55.5 -58t-34.5 -147zM710 1024v-205h-563q10 -90 34.5 -147.5t55.5 -57.5h379v-205h-379q-99 0 -168 149.5t-69 362.5q0 212 69 362t168 150h237q97 0 166.5 -120t69.5 -289zM426 1843h95v-102l-332 -308h-94v103
z" />
    <glyph glyph-name="ecircumflex" unicode="&#xea;" 
d="M147 1024h421q0 84 -27.5 144.5t-66.5 60.5h-237q-31 0 -56 -58t-34 -147zM710 1024v-205h-563q9 -90 34 -147.5t56 -57.5h379v-204h-379q-99 0 -168 149.5t-69 362.5q0 211 69 361t168 150h237q97 0 166.5 -120t69.5 -289zM355 1853l-166 -215h-94v103l236 307h48
l237 -307v-103h-95z" />
    <glyph glyph-name="edieresis" unicode="&#xeb;" 
d="M95 1843h142v-205h-142v205zM147 1024h421q0 84 -27.5 144.5t-66.5 60.5h-237q-32 0 -56.5 -58t-33.5 -147zM710 1024v-205h-563q9 -90 33.5 -147.5t56.5 -57.5h379v-205h-379q-99 0 -168 149.5t-69 362.5q0 212 69 362t168 150h237q97 0 166.5 -120t69.5 -289zM474 1843
h142v-205h-142v205z" />
    <glyph glyph-name="igrave" unicode="&#xec;" 
d="M426 614h190v-205h-521v205h189v615h-95v204h237v-204v-615zM189 1843l332 -307v-103h-95l-331 308v102h94z" />
    <glyph glyph-name="iacute" unicode="&#xed;" 
d="M189 1433h237v-202v-617h190v-205h-521v205h189v615h-95v204h-94v103l331 307h95v-102z" />
    <glyph glyph-name="icircumflex" unicode="&#xee;" 
d="M426 614h190v-205h-521v205h189v615h-95v204h237v-204v-615zM355 1853l-166 -215h-94v103l236 307h48l237 -307v-103h-95z" />
    <glyph glyph-name="idieresis" unicode="&#xef;" 
d="M95 1843h142v-205h-142v205zM474 1843h142v-205h-142v205zM426 614h190v-205h-521v205h189v615h-95v204h237v-204v-615z" />
    <glyph glyph-name="eth" unicode="&#xf0;" 
d="M95 1843h142l-48 103v102h95l95 -205h237v-205h-142l142 -308q25 -42 47 -101v0q48 -106 47 -307v-1q0 -213 -69.5 -362.5t-166.5 -149.5h-237q-99 0 -168 149.5t-69 362.5q0 212 69 362t168 150h189l-94 205h-237v205zM237 614h237q39 0 66.5 90t27.5 217t-27.5 217.5
t-66.5 90.5h-237q-39 0 -67 -90.5t-28 -217.5t28 -217t67 -90z" />
    <glyph glyph-name="ntilde" unicode="&#xf1;" 
d="M568 922q0 126 -27.5 216.5t-66.5 90.5h-119q-89 0 -151 -90.5t-62 -216.5v-512h-142v512v513h142v-104q92 102 213 102h119q97 0 166.5 -150t69.5 -361v-512h-142v512zM546 2048h70v-102l-30 -78q-51 -133 -117.5 -204.5t-138.5 23.5q-12 15 -22.5 33.5t-21.5 37.5
q-22 38 -36 58q-47 60 -91.5 -8t-78.5 -145l-11 -25h-69v103q6 18 14 39t15 39q55 123 119.5 198.5t136.5 -18.5q14 -18 44 -71q28 -47 36 -58q46 -61 91 7.5t79 145.5z" />
    <glyph glyph-name="ograve" unicode="&#xf2;" 
d="M284 1843l332 -307v-103h-95l-332 308v102h95zM237 410q-99 0 -168 149.5t-69 362.5q0 211 69 361t168 150h237q97 0 166.5 -150t69.5 -361q0 -213 -69.5 -362.5t-166.5 -149.5h-237zM237 614h237q39 0 66.5 90t27.5 218q0 126 -27.5 216.5t-66.5 90.5h-237
q-40 0 -67.5 -90.5t-27.5 -216.5q0 -128 27.5 -218t67.5 -90z" />
    <glyph glyph-name="oacute" unicode="&#xf3;" 
d="M237 413q-99 0 -168 149.5t-69 362.5q0 211 69 361.5t168 150.5h237q97 0 166.5 -150.5t69.5 -361.5q0 -213 -69.5 -362.5t-166.5 -149.5h-237zM428 1843h94v-102l-331 -308h-95v103zM237 617h237q39 0 66.5 90t27.5 218q0 126 -27.5 216.5t-66.5 90.5h-237
q-39 0 -67 -90.5t-28 -216.5q0 -128 28 -218t67 -90z" />
    <glyph glyph-name="ocircumflex" unicode="&#xf4;" 
d="M237 409q-99 0 -168 149.5t-69 362.5q0 212 69 362t168 150h237q97 0 166.5 -150t69.5 -362q0 -213 -69.5 -362.5t-166.5 -149.5h-237zM355 1853l-166 -215h-94v102l237 307h47l237 -307v-102h-95zM237 614h237q39 0 66.5 89.5t27.5 217.5q0 127 -27.5 217t-66.5 90h-237
q-39 0 -67 -90t-28 -217q0 -128 28 -217.5t67 -89.5z" />
    <glyph glyph-name="otilde" unicode="&#xf5;" 
d="M546 2047h70v-102l-30 -78q-51 -132 -117.5 -203.5t-138.5 23.5q-14 17 -44 71q-22 39 -36 57q-47 61 -91.5 -7.5t-78.5 -144.5l-11 -25h-69v102q10 32 29 78q55 123 119.5 198.5t136.5 -18.5q16 -20 44 -70q28 -47 36 -58q46 -61 91 7t79 146zM237 409q-99 0 -168 149.5
t-69 362.5q0 212 69 362t168 150h237q97 0 166.5 -150t69.5 -362q0 -213 -69.5 -362.5t-166.5 -149.5h-237zM237 614h237q39 0 66.5 89.5t27.5 217.5q0 127 -27.5 217t-66.5 90h-237q-39 0 -67 -90t-28 -217q0 -128 28 -217.5t67 -89.5z" />
    <glyph glyph-name="odieresis" unicode="&#xf6;" 
d="M95 1843h142v-205h-142v205zM237 410q-99 0 -168 149.5t-69 362.5q0 212 69 362t168 150h237q97 0 166.5 -150t69.5 -362q0 -213 -69.5 -362.5t-166.5 -149.5h-237zM237 615h237q39 0 66.5 89.5t27.5 217.5q0 126 -27.5 216.5t-66.5 90.5h-237q-40 0 -67.5 -90.5
t-27.5 -216.5q0 -128 27.5 -217.5t67.5 -89.5zM474 1843h142v-205h-142v205z" />
    <glyph glyph-name="divide" unicode="&#xf7;" 
d="M0 1229h710v-205h-710v205zM284 1433v410h142v-410h-142zM284 410v409h142v-409h-142z" />
    <glyph glyph-name="oslash" unicode="&#xf8;" 
d="M237 409q-22 0 -44 9l-98 -214h-95v103l95 205q-95 152 -95 409q0 212 69 362t168 150h237q20 0 43 -8l99 213h94v-102l-94 -205q94 -156 94 -410q0 -213 -69.5 -362.5t-166.5 -149.5h-237zM535 1156l-251 -542h190q39 0 66.5 89.5t27.5 217.5q0 140 -33 235zM176 687
l250 541h-189q-39 0 -67 -90t-28 -217q0 -144 34 -234z" />
    <glyph glyph-name="ugrave" unicode="&#xf9;" 
d="M0 1428h142v-614q0 -85 28 -145t67 -60h23q88 0 150.5 60t62.5 145l1 614h142l-1 -614h1q0 -116 23 -183t71 -124v-103h-94q-63 66 -93 134q-107 -134 -263 -134h-23q-99 0 -168 119.5t-69 290.5v614zM176 1843l331 -307v-103h-94l-332 308v102h95z" />
    <glyph glyph-name="uacute" unicode="&#xfa;" 
d="M0 1433h95v103l331 307h95v-102l-332 -308h-47v-614q0 -85 28 -145t67 -60h23q88 0 151 60t63 145v614h142l-1 -614h1q0 -116 23 -183t71 -124v-102h-94q-62 66 -93 133q-106 -133 -263 -133h-23q-99 0 -168 119.5t-69 289.5v614z" />
    <glyph glyph-name="ucircumflex" unicode="&#xfb;" 
d="M0 1436h142v-614q0 -85 28 -145t67 -60h23q88 0 150.5 60t62.5 145l1 614h142l-1 -614h1q0 -116 23 -183t71 -124v-103h-94q-61 65 -93 134q-107 -134 -263 -134h-23q-99 0 -168 120t-69 290v614zM356 1853l-166 -215h-95v102l237 307h47l237 -307v-102h-95z" />
    <glyph glyph-name="udieresis" unicode="&#xfc;" 
d="M0 1433h142v-614q0 -85 28 -145t67 -60h23q88 0 150.5 60t62.5 145l1 614h142l-1 -614h1q0 -116 23 -183t71 -124v-103h-94q-61 65 -93 134q-107 -134 -263 -134h-23q-99 0 -168 120t-69 290v614zM95 1843h142v-205h-142v205zM474 1843h142v-205h-142v205z" />
    <glyph glyph-name="ydieresis" unicode="&#xff;" 
d="M95 1843h142v-205h-142v205zM474 1843h142v-205h-142v205zM474 696q-97 -82 -214 -82h-23q-99 0 -168 119.5t-69 290.5v409h142v-409q0 -86 27.5 -145.5t67.5 -59.5h23q88 0 150.5 59.5t62.5 145.5l1 409h142v-1126q0 -128 -56 -217.5t-134 -89.5h-237q-78 0 -133.5 89.5
t-55.5 217.5v102h142v-102q0 -103 47 -103h237q48 0 48 103v389z" />
    <glyph glyph-name="yacute" unicode="&#xfd;" 
d="M474 696q-95 -82 -214 -82h-23q-99 0 -168 119.5t-69 289.5v410h142v-410q0 -85 28 -144.5t67 -59.5l23 -1q88 0 150.5 60t62.5 145l1 410h142v-1126q0 -128 -56 -217.5t-134 -89.5h-237q-78 0 -133.5 89.5t-55.5 217.5v102h142v-102q0 -103 47 -103h237q48 0 48 103v389
zM426 1842h95v-102l-332 -307h-94v102z" />
    <glyph glyph-name="spade" unicode="&#x2660;" 
d="M355 1894l213 -461q106 -231 124 -282t18 -127q0 -85 -41.5 -145t-100.5 -60t-100.5 60t-41.5 145v-205q0 -85 41.5 -145t100.5 -60h48v-205h-521v205h47q58 0 100 60t42 145v205q0 -85 -42 -145t-100 -60q-59 0 -100.5 60t-41.5 145q0 76 17.5 127t124.5 282z" />
    <glyph glyph-name="bullet" unicode="&#x2022;" 
d="M402 409q-127 0 -217 210t-90 507q0 296 90 506.5t217 210.5t217.5 -210.5t90.5 -506.5q0 -297 -90.5 -507t-217.5 -210z" />
    <glyph glyph-name="uniE004" unicode="&#xe004;" 
d="M0 615v204h852v-204h-852z" />
    <glyph glyph-name="uniE005" unicode="&#xe005;" 
d="M0 205v205h852v-205h-852z" />
    <glyph glyph-name="logicalnot" unicode="&#xac;" 
d="M710 410h-142v614h-473v205h473h48h94v-819z" />
    <glyph glyph-name="SF480000" unicode="&#x2565;" 
d="M331 1022v-1023h-142v1023h-189v205h852v-205h-236v-1023h-142v1023h-143z" />
    <glyph glyph-name="integralbt" unicode="&#x2321;" 
d="M426 2048v-1331q0 -213 -62.5 -362.5t-150.5 -149.5q-89 0 -151 149.5t-62 362.5v102h142v-102q0 -128 20.5 -217.5t50.5 -89.5q29 0 50 89.5t21 217.5v1331h142z" />
    <glyph glyph-name="OE" unicode="&#x152;" 
d="M710 1843v-205h-320q36 -115 36 -256v-153h190v-205h-190v-154q0 -142 -36 -256h320v-205h-426v27q-35 -27 -71 -27q-89 0 -151 135t-62 326v512q0 191 62 326t151 135q36 0 71 -27v27h426zM284 1382q0 105 -21 180.5t-50 75.5q-30 0 -50.5 -75.5t-20.5 -180.5v-512
q0 -106 20.5 -181t50.5 -75q29 0 50 75t21 181v512z" />
    <glyph glyph-name="oe" unicode="&#x153;" 
d="M237 1433q66 0 118 -67v0q52 67 119 67h47q78 0 133.5 -90t55.5 -217v-307h-284v-103q0 -102 48 -102l236 1v-205l-236 -1q-67 0 -119 68q-51 -68 -118 -68h-48q-78 0 -133.5 90t-55.5 217v410q0 127 55.5 217t133.5 90h48zM426 1024h142v102q0 103 -47 103h-47
q-48 0 -48 -103v-102zM237 1229h-48q-47 0 -47 -103v-410q0 -102 47 -102h48q47 0 47 102v410q0 103 -47 103z" />
    <glyph glyph-name="florin" unicode="&#x192;" 
d="M426 307q0 -127 -55.5 -217t-133.5 -90h-48q-78 0 -133.5 90t-55.5 217v103h142v-103q0 -102 47 -102h48q47 0 47 102v512h-189v205h189v512q0 127 55.5 217t134.5 90h47q78 0 133.5 -90t55.5 -217v-103h-142v103q0 102 -47 102h-47q-48 0 -48 -102v-512h190v-205h-190
v-512z" />
    <glyph glyph-name="Thorn" unicode="&#xde;" 
d="M142 1843v-205h332q97 0 166.5 -120t69.5 -289q0 -170 -69 -290t-163 -120h-336v0v-410h-142v1434h142zM142 1434v-410v0h332q39 0 66.5 60t27.5 145q0 84 -27.5 144t-66.5 60h-332v1z" />
    <glyph glyph-name="thorn" unicode="&#xfe;" 
d="M142 489v-489h-142v1024v409h142v-289q93 82 213 82h118q98 0 167.5 -120t69.5 -289q0 -171 -69.5 -290.5t-167.5 -119.5h-118q-119 0 -213 82zM473 612q39 0 67 59.5t28 145.5q0 84 -28 144t-67 60h-118q-89 0 -151 -60t-62 -144q0 -85 62 -145t151 -60h118z" />
  </font>
</defs>
</svg>
